<svg width="20" height="19" viewBox="0 0 20 19" fill="none" xmlns="http://www.w3.org/2000/svg">
<path d="M18.7502 10.4999L3.92518 10.5022L8.46353 15.9515C8.67574 16.2068 8.77787 16.5358 8.74744 16.8664C8.71702 17.1969 8.55654 17.5018 8.3013 17.714C8.04606 17.9263 7.71697 18.0284 7.38644 17.998C7.0559 17.9675 6.75099 17.8071 6.53877 17.5518L0.287616 10.0528C0.245557 9.99314 0.207946 9.93047 0.175086 9.8653C0.175077 9.8028 0.175071 9.7653 0.0875618 9.70282C0.0308815 9.5595 0.00119233 9.40694 -7.86061e-06 9.25283C0.00114476 9.09872 0.0307869 8.94615 0.0874229 8.80282C0.0874133 8.74032 0.0874071 8.70282 0.174897 8.6403C0.207737 8.57512 0.245329 8.51245 0.287369 8.45278L6.53621 0.951821C6.65372 0.8107 6.80087 0.697201 6.96722 0.619399C7.13356 0.541597 7.315 0.501402 7.49864 0.501672C7.79071 0.501056 8.07377 0.602731 8.29869 0.789048C8.42528 0.893965 8.52992 1.02283 8.60664 1.16825C8.68335 1.31367 8.73062 1.4728 8.74574 1.63651C8.76086 1.80023 8.74353 1.96533 8.69475 2.12234C8.64597 2.27935 8.56669 2.4252 8.46146 2.55152L3.9248 8.00222L18.7498 7.99994C19.0813 7.99988 19.3993 8.13153 19.6337 8.36592C19.8682 8.6003 19.9999 8.91822 20 9.24974C20 9.58126 19.8684 9.89923 19.634 10.1337C19.3996 10.3681 19.0817 10.4999 18.7502 10.4999Z" fill="white"/>
</svg>
